<?xml version="1.0" standalone="no"?><!DOCTYPE svg PUBLIC "-//W3C//DTD SVG 1.1//EN" "http://www.w3.org/Graphics/SVG/1.1/DTD/svg11.dtd"><svg t="1674290729409" class="icon" viewBox="0 0 1024 1024" version="1.1" xmlns="http://www.w3.org/2000/svg" p-id="984" xmlns:xlink="http://www.w3.org/1999/xlink" width="200" height="200"><path d="M906.666667 597.333333a32 32 0 0 1 32 32V810.666667a128 128 0 0 1-128 128H213.333333a128 128 0 0 1-128-128v-181.333334a32 32 0 0 1 64 0V810.666667a64 64 0 0 0 60.245334 63.893333L213.333333 874.666667h597.333334a64 64 0 0 0 63.893333-60.245334L874.666667 810.666667v-181.333334a32 32 0 0 1 32-32zM512 85.333333a32 32 0 0 1 32 32v471.146667l171.648-171.648a32 32 0 0 1 45.248 45.269333l-203.648 203.648a64 64 0 0 1-90.496 0l-203.648-203.648a32 32 0 0 1 45.248-45.269333l171.626667 171.648L480 117.333333A32 32 0 0 1 512 85.333333z" fill="#111111" p-id="985"></path></svg>