<?xml version="1.0" standalone="no"?><!DOCTYPE svg PUBLIC "-//W3C//DTD SVG 1.1//EN" "http://www.w3.org/Graphics/SVG/1.1/DTD/svg11.dtd"><svg t="1674290765717" class="icon" viewBox="0 0 1024 1024" version="1.1" xmlns="http://www.w3.org/2000/svg" p-id="1127" xmlns:xlink="http://www.w3.org/1999/xlink" width="200" height="200"><path d="M501.333333 256c129.6 0 234.666667 105.066667 234.666667 234.666667s-105.066667 234.666667-234.666667 234.666666-234.666667-105.066667-234.666666-234.666666 105.066667-234.666667 234.666666-234.666667z m0 64a170.666667 170.666667 0 1 0 0 341.333333 170.666667 170.666667 0 0 0 0-341.333333zM192 458.666667a32 32 0 0 1 0 64H128a32 32 0 0 1 0-64h64z m682.666667 0a32 32 0 0 1 0 64h-64a32 32 0 0 1 0-64h64zM793.28 196.053333a32 32 0 0 1 0 45.226667l-45.248 45.269333a32 32 0 1 1-45.269333-45.248l45.269333-45.269333a32 32 0 0 1 45.248 0z m-527.978667 0l45.269334 45.226667a32 32 0 1 1-45.269334 45.269333l-45.248-45.248a32 32 0 1 1 45.248-45.269333zM501.333333 85.333333A32 32 0 0 1 533.333333 117.333333v64a32 32 0 0 1-64 0v-64A32 32 0 0 1 501.333333 85.333333zM384 768h234.666667a32 32 0 0 1 0 64H384a32 32 0 0 1 0-64z m64 106.666667h106.666667a32 32 0 0 1 0 64h-106.666667a32 32 0 0 1 0-64z" fill="#111111" p-id="1128"></path></svg>