<?xml version="1.0" standalone="no"?><!DOCTYPE svg PUBLIC "-//W3C//DTD SVG 1.1//EN" "http://www.w3.org/Graphics/SVG/1.1/DTD/svg11.dtd"><svg t="1674290872111" class="icon" viewBox="0 0 1024 1024" version="1.1" xmlns="http://www.w3.org/2000/svg" p-id="1598" xmlns:xlink="http://www.w3.org/1999/xlink" width="200" height="200"><path d="M502.848 128v64H192v640h639.616V530.688h64V864a32 32 0 0 1-26.24 31.488l-5.76 0.512H160a32 32 0 0 1-31.488-26.24L128 864v-704a32 32 0 0 1 26.24-31.488L160 128h342.848z m238.528 0L896 273.024l-426.24 432.192-118.08-1.728a31.936 31.936 0 0 1-31.232-31.936l2.112-116.8L741.376 128z m1.856 89.408L385.984 581.376l-1.024 58.496 58.368 0.896 360.96-366.016-61.056-57.344z" fill="#262626" p-id="1599"></path></svg>